<?xml version="1.0" standalone="no"?>
<!DOCTYPE svg PUBLIC "-//W3C//DTD SVG 20010904//EN"
 "http://www.w3.org/TR/2001/REC-SVG-20010904/DTD/svg10.dtd">
<svg version="1.0" xmlns="http://www.w3.org/2000/svg"
 width="512.000000pt" height="512.000000pt" viewBox="0 0 512.000000 512.000000"
 preserveAspectRatio="xMidYMid meet">

<g transform="translate(0.000000,512.000000) scale(0.100000,-0.100000)"
fill="#000000" stroke="none">
<path d="M3330 4003 c-708 -341 -1593 -518 -2350 -472 -312 20 -312 19 -324
-14 -8 -23 -5 -39 23 -94 103 -209 323 -466 571 -666 47 -38 191 -139 320
-224 451 -299 727 -520 854 -686 88 -116 156 -280 156 -379 0 -74 40 -115 89
-89 30 16 36 53 22 142 -53 345 -313 618 -1048 1103 -123 80 -269 183 -325
229 -121 97 -281 253 -360 352 -56 70 -148 204 -148 215 0 3 51 2 113 -3 130
-10 564 -2 717 13 609 59 1145 202 1684 446 l139 63 81 -70 c121 -105 277
-220 506 -372 232 -153 307 -211 433 -333 208 -203 282 -335 294 -530 7 -115
-14 -215 -67 -322 -74 -147 -185 -243 -385 -331 -55 -24 -269 -121 -475 -214
-645 -291 -970 -431 -1202 -516 -200 -74 -242 -84 -314 -78 -134 10 -222 84
-324 272 -82 151 -216 353 -321 486 -172 218 -516 537 -863 799 -150 114 -151
117 -49 119 83 2 124 36 102 85 -7 14 -19 28 -28 31 -25 10 -333 -26 -359 -42
-18 -11 -22 -22 -20 -45 3 -27 17 -41 95 -97 50 -37 94 -69 98 -72 3 -4 -47
-14 -112 -24 -169 -24 -192 -31 -199 -60 -10 -40 3 -59 63 -92 139 -76 461
-294 693 -468 52 -39 103 -74 113 -78 10 -4 31 0 48 8 22 12 29 22 29 45 0 24
-11 38 -57 75 -88 69 -404 293 -530 376 -67 44 -108 76 -100 80 6 3 49 12 95
19 99 15 75 28 312 -169 276 -229 471 -427 623 -631 131 -175 215 -296 216
-312 1 -4 -47 26 -107 67 -262 182 -666 434 -1052 655 -386 221 -427 239 -458
208 -18 -18 -15 -63 6 -80 9 -8 94 -57 187 -108 626 -343 1363 -817 1628
-1048 134 -117 282 -142 473 -81 244 77 774 302 1447 613 114 53 252 115 305
137 219 93 324 159 412 256 119 133 179 281 188 460 11 246 -59 410 -270 629
-162 169 -255 242 -585 459 -172 113 -351 249 -455 344 -59 55 -83 71 -105 70
-15 0 -80 -26 -143 -56z"/>
<path d="M3337 3660 c-279 -118 -802 -277 -1155 -350 -221 -46 -228 -65 -80
-199 51 -46 166 -153 255 -237 118 -113 168 -154 186 -154 39 0 871 289 885
307 26 35 3 86 -39 85 -13 0 -195 -58 -404 -130 -209 -71 -390 -133 -402 -136
-20 -6 -50 18 -205 164 -101 94 -184 175 -186 179 -1 5 26 14 60 20 239 46
759 203 1076 325 l93 36 82 -69 c45 -37 151 -121 236 -185 130 -98 159 -117
185 -114 36 4 60 41 45 69 -5 10 -80 72 -167 138 -87 66 -201 157 -252 201
-67 56 -102 80 -120 79 -14 0 -55 -13 -93 -29z"/>
<path d="M1615 3200 c-27 -5 -81 -9 -118 -9 -59 -1 -71 -4 -93 -26 -28 -28
-26 -59 5 -83 17 -15 107 -11 246 9 105 16 135 44 105 100 -12 21 -51 23 -145
9z"/>
<path d="M3610 3197 c-34 -17 -39 -66 -10 -92 19 -18 24 -18 62 -5 51 19 66
39 52 77 -7 23 -16 29 -44 31 -19 1 -46 -4 -60 -11z"/>
<path d="M3897 3027 c-122 -54 -213 -100 -219 -111 -16 -29 5 -61 64 -99 167
-108 308 -319 348 -524 20 -101 34 -104 187 -44 132 51 197 98 241 171 43 73
55 121 50 205 -6 89 -29 141 -105 235 -94 115 -284 262 -337 259 -12 -1 -115
-42 -229 -92z m279 -58 c66 -42 226 -204 252 -256 48 -93 33 -202 -36 -271
-43 -43 -190 -110 -197 -89 -2 7 -11 37 -20 67 -45 144 -144 301 -256 404 -34
32 -60 59 -58 61 5 4 251 113 260 114 3 1 27 -13 55 -30z"/>
<path d="M1835 3035 c-5 -2 -27 -6 -47 -10 -66 -10 -90 -62 -48 -100 18 -17
27 -17 83 -7 65 12 87 29 87 68 0 33 -42 60 -75 49z"/>
<path d="M2015 2844 c-22 -8 -82 -23 -133 -34 -51 -10 -100 -24 -108 -31 -20
-17 -17 -63 6 -84 17 -15 26 -16 83 -6 70 12 214 53 246 71 25 13 28 61 5 84
-19 19 -46 19 -99 0z"/>
<path d="M3031 2691 c-270 -97 -389 -144 -398 -158 -18 -28 -1 -70 31 -79 17
-4 139 35 407 131 211 75 389 141 396 147 21 17 16 65 -9 82 -12 9 -27 16 -33
15 -5 0 -183 -62 -394 -138z"/>
<path d="M3319 2471 c-157 -58 -293 -112 -303 -120 -19 -16 -21 -62 -4 -79 7
-7 23 -12 37 -12 31 0 600 208 624 228 36 32 7 93 -44 91 -13 -1 -153 -49
-310 -108z"/>
<path d="M3303 2101 c-237 -98 -439 -183 -448 -191 -24 -20 -16 -72 14 -86 29
-15 -9 -28 500 180 223 91 413 174 423 183 10 9 18 24 18 35 0 23 -35 58 -57
57 -10 0 -212 -80 -450 -178z"/>
<path d="M2687 2240 c-64 -25 -77 -37 -77 -71 0 -19 8 -34 25 -45 22 -15 28
-15 73 0 26 9 58 23 70 32 30 20 29 68 0 88 -28 20 -32 20 -91 -4z"/>
</g>
</svg>
